<?xml version="1.0" encoding="utf-8" ?><svg xmlns="http://www.w3.org/2000/svg" xmlns:xlink="http://www.w3.org/1999/xlink" width="1024" height="1024" viewBox="0 0 1024 1024"><path fill="white" d="M0 0L1024 0L1024 1024L0 1024L0 0Z"/><path d="M318.813 251.678C364.177 256.696 412.035 280.383 444.964 311.752C490.935 355.832 517.729 416.222 519.562 479.886C524.309 483.791 526.265 485.117 527.803 491.19C557.395 490.549 588.951 491.089 618.641 491.095C621.562 465.828 629.854 392.97 643.004 373.401C644.81 370.713 647.54 367.634 650.931 367.121C653.208 366.777 655.331 367.761 657.048 369.19C672.351 381.93 683.789 469.306 686.164 491.079L754.335 491.151C757.702 464.947 765.707 392.186 779.966 372.457C781.753 369.984 784.12 367.439 787.309 367.004C789.351 366.726 791.335 367.528 792.929 368.763C810.654 382.484 818.993 468.612 821.683 491.268C846.788 491.041 871.895 490.988 897.001 491.11C908.315 491.045 919.63 491.062 930.943 491.161C934.783 491.173 943.245 490.386 946.267 491.777L946.306 492.989C943.787 494.957 932.092 494.221 928.002 494.226C915.059 494.145 902.115 494.159 889.172 494.269C884.408 524.008 877.921 596.333 862.367 618.97C860.454 621.753 857.822 624.456 854.306 624.899C851.931 625.198 849.685 624.287 847.853 622.818C831.267 609.51 821.175 516.522 818.874 494.273C815.461 494.084 811.999 494.073 808.581 494.146C791.356 494.515 774.097 493.992 756.881 494.159C751.917 523.892 745.601 595.723 729.305 618.862C727.43 621.524 724.622 624.788 721.171 625.215C719.059 625.477 717.074 624.566 715.425 623.315C697.162 609.462 686.864 518.963 683.422 494.039L647.442 494.207C638.951 494.202 629.512 493.872 621.177 494.332C617.381 523.266 610.391 595.39 595.452 617.994C593.513 620.928 590.701 624.114 587.042 624.729C584.52 625.153 582.866 624.179 580.846 622.799C571.08 612.539 567.567 594.1 564.559 580.53C558.305 552.318 554.565 523.226 551.401 494.509C543.553 494.06 536.037 494.151 528.178 494.196C526.14 500.393 524.532 502.071 519.271 505.688C516.356 559.774 491.471 613.254 453.685 651.804C413.669 692.864 358.971 716.331 301.641 717.035C243.181 717.9 186.86 695.066 145.508 653.734C103.001 611.227 78.7606 553.809 77.9465 493.701C77.4786 434.072 98.2734 376.654 140.569 334.08C176.924 297.486 227.047 274.698 278.857 274.465C334.786 273.873 388.576 295.926 427.992 335.608C458.118 365.488 479.374 407.238 486.889 448.968C489.544 463.711 490.188 476.139 490.256 490.997C501.627 491.433 498.635 492.208 503.659 483.828C505.793 480.269 512.649 479.269 516.823 478.888C514.444 431.145 500.146 386.614 472.246 347.521C441.19 303.97 395.788 272.749 344.007 259.337C336.874 257.488 326.616 256.005 319.15 254.766C318.275 253.612 318.634 253.61 318.813 251.678Z"/><path fill="white" d="M269.471 277.709C273.574 277.272 278.913 277.323 283.095 277.387C400.725 279.195 488.128 375.336 487.331 491.147L460.095 491.002C460.073 471.574 458.629 456.787 453.554 437.88C441.194 391.804 411.191 352.448 370.036 328.323C330.292 305.201 283.016 298.738 238.525 310.344C193.914 322.716 156.062 352.337 133.328 392.665C107.409 438.653 100.727 493.023 114.738 543.917C142.634 646.315 246.166 708.531 349.616 680.146C377.442 672.054 403.024 657.649 424.372 638.052C466.428 599.945 487.236 550.182 490.072 494.129C493.274 494.018 496.655 494.028 499.874 493.984C503.317 503.422 506.826 505.954 516.603 506.139C512.141 557.039 494.347 600.782 460.994 639.746C424.059 682.551 371.732 709.059 315.371 713.517C258.04 718.003 201.311 699.262 157.935 661.506C112.165 622.154 85.6892 565.146 81.3332 505.316C76.9832 447.117 95.9056 389.571 133.946 345.311C168.377 305.707 217.123 281.393 269.471 277.709Z"/><path fill="white" d="M275.873 307.722L276.888 307.687C322.547 306.367 366.88 323.133 400.24 354.336C428.409 380.986 447.354 415.919 454.325 454.066C456.689 467.482 456.996 477.709 457.417 491.145L430.039 491.033C429.524 435.625 406.23 385.963 358.05 356.136C322.437 334.089 275.827 328.378 236.288 342.871C199.561 356.238 169.718 383.758 153.425 419.284C134.219 460.497 132.385 507.7 148.335 550.278C163.019 590.104 195.001 625.004 233.598 642.713C266.428 657.97 303.57 661.225 338.553 651.911C344.123 650.422 350.261 648.032 355.717 646.014C372.267 639.373 387.589 630.008 401.048 618.308C430.132 592.789 449.85 558.28 457.067 520.267C458.848 510.915 459.371 503.464 460.041 494.034C468.714 494.003 478.584 493.835 487.146 494.365C485.828 541.552 467.873 586.755 436.455 621.987C403.932 658.664 358.212 680.975 309.289 684.043C259.978 686.725 211.649 669.531 175.112 636.308C137.051 602.198 114.008 554.432 110.999 503.412C105.747 402.911 171.492 313.082 275.873 307.722Z"/><path fill="white" d="M277.362 399.209C319.239 395.272 357.103 427.216 364.765 467.63C366.432 476.424 366.66 482.179 366.619 491.048C358.277 491.121 291.046 491.712 289.355 490.459C287.865 489.354 286.004 483.395 282.109 480.716C280.26 479.444 278.175 478.72 275.933 479.2C272.674 479.898 269.508 482.914 267.744 485.621C266.227 487.948 265.673 490.721 266.324 493.434C267.046 496.447 269.184 498.974 271.852 500.485C274.506 501.985 277.646 502.368 280.582 501.552C284.524 500.444 286.469 498.229 288.349 494.798L288.662 494.214C292.171 494.091 295.805 494.088 299.32 494.159C321.7 494.611 344.238 493.671 366.599 494.204C364.687 518.572 351.699 540.715 331.363 554.276C328.15 556.375 317.75 561.154 316.798 562.184L316.903 562.834C318.165 563.546 320.364 563.212 321.66 562.693C338.943 555.769 353.099 540.436 361.479 524.127C366.195 514.399 368.118 504.738 369.653 494.184C377.853 493.753 388.383 494.089 396.631 494.351C392.675 544.342 357.787 588.843 305.665 593.732C281.718 595.978 256.077 587.179 237.774 571.612C216.524 553.549 203.277 527.817 200.92 500.026C198.764 473.452 205.888 447.209 223.427 426.818C236.983 410.764 256.412 400.818 277.362 399.209Z"/><path fill="white" d="M272.295 338.202C275.74 337.978 279.191 337.873 282.643 337.886C320.456 337.913 356.7 353.009 383.353 379.831C413.476 409.95 427.077 448.976 426.964 491.02L399.581 491.141C399.547 470.484 397.207 454.195 388.55 434.923C375.817 406.286 352.214 383.893 322.948 372.684C295.479 362.022 264.874 362.872 238.04 375.043C208.903 388.389 187.293 413.012 176.179 442.912C163.43 477.189 164.819 515.126 180.041 548.378C210.45 614.047 284.582 646.027 351.632 614.974C360.867 610.66 369.532 605.219 377.428 598.773C400.952 579.55 417.709 553.306 425.251 523.878C427.713 514.174 428.97 504.158 430.046 494.218C438.906 494.119 448.205 493.873 457.024 494.209C456.432 507.496 455.029 519.009 451.593 531.97C434.801 595.314 380.304 647.262 313.857 653.403C272.801 657.439 231.853 644.745 200.278 618.195C166.176 590.051 144.844 549.36 141.095 505.303C133.677 423.402 187.12 345.907 272.295 338.202Z"/><path fill="white" d="M273.76 368.697C275.918 368.351 282.52 368.277 284.775 368.314C314.353 368.915 342.493 381.187 363.059 402.453C386.593 426.961 397.21 457.26 396.613 491.036L369.724 491.137C369.441 470.373 367.063 456.071 356.055 437.707C344.355 418.173 325.436 404.029 303.389 398.335C282.198 393.017 259.758 396.483 241.159 407.947C219.918 420.867 206.192 442.441 200.479 466.367C193.919 494.599 198.917 524.281 214.361 548.807C243.353 595.693 302.023 611.465 349.254 581.694C352.094 579.857 354.851 577.894 357.517 575.812C384.402 554.405 395.838 527.508 399.589 494.209C407.928 493.835 418.306 494.02 426.651 494.4C425.756 556.454 375.94 616.116 313.274 623.096C279.992 627.073 246.523 617.358 220.543 596.178C192.427 573.341 174.617 540.204 171.083 504.155C167.746 470.393 177.278 434.959 198.964 408.637C217.464 385.752 244.45 371.342 273.76 368.697Z"/><path fill="white" d="M686.812 494.075C707.927 494.266 733.025 493.57 753.735 494.385C748.316 531.256 745.476 564.717 734.195 601.123C732.573 605.76 730.904 610.53 728.435 614.794C726.955 617.348 724.397 621.173 721.195 621.665C719.237 621.965 717.61 621.344 716.119 620.082C703.199 609.152 694.851 549.645 692.087 532.128C690.109 519.596 687.723 506.736 686.812 494.075Z"/><path fill="white" d="M823.496 494.238C832.276 493.979 842.423 494.274 851.322 494.252C862.603 494.223 875.065 493.855 886.174 494.369C881.733 528.601 876.726 571.533 866.032 604.145C864.104 608.973 862.327 614.521 858.964 618.545C857.578 620.204 855.652 621.744 853.375 621.739C851.115 621.733 849.193 620.194 847.798 618.561C835.334 603.972 827.437 537.806 824.756 516.86C823.995 510.913 821.724 500.075 822.253 494.708L823.496 494.238Z"/><path fill="white" d="M556.013 494.24C568.349 494.307 580.685 494.302 593.02 494.225C600.255 494.159 611.298 493.701 618.167 494.451C613.405 531.261 609.709 568.899 598.603 604.375C596.825 609.333 594.326 616.659 590.025 619.93C588.7 620.936 587.146 621.506 585.467 621.215C583.02 620.791 581.116 618.808 579.751 616.865C567.244 599.057 559.837 538.374 556.867 514.173C556.146 508.295 553.923 500.455 554.909 494.692L556.013 494.24Z"/><path fill="white" d="M787.753 369.342C788.823 369.688 789.772 370.021 790.686 370.696C807.812 383.344 815.361 467.752 818.569 491.11L788.75 491.076L757.315 491.174C759.867 468.417 769.473 380.57 787.753 369.342Z"/><path fill="white" d="M650.786 369.919C652.148 369.974 653.164 369.993 654.331 370.818C670.013 381.899 680.193 469.544 683.15 490.969C673.701 491.222 663.737 491.078 654.25 491.086C643.546 491.073 632.533 490.924 621.861 491.305C622.53 481.35 624.165 470.465 625.567 460.545C627.975 443.013 630.947 425.563 634.479 408.222C636.782 397.296 641.511 375.952 650.786 369.919Z"/><path fill="white" d="M513.455 482.098C519.228 481.774 524.179 486.173 524.537 491.944C524.896 497.715 520.527 502.692 514.758 503.086C508.94 503.482 503.911 499.068 503.549 493.247C503.188 487.427 507.632 482.424 513.455 482.098Z"/><path fill="white" d="M276.169 482.704C280.644 482.03 284.825 485.091 285.534 489.56C286.244 494.03 283.216 498.235 278.753 498.98C274.238 499.734 269.975 496.664 269.257 492.144C268.54 487.624 271.643 483.385 276.169 482.704Z"/></svg>